<svg width="50" height="58" viewBox="0 0 50 58" fill="none" xmlns="http://www.w3.org/2000/svg">
<g opacity="0.994">
<path fill-rule="evenodd" clip-rule="evenodd" d="M5.38225 38.8782C5.56983 38.8243 5.73754 38.7527 5.88543 38.6635C5.8936 38.6714 5.9018 38.6795 5.90997 38.6874C5.98361 38.6475 6.05725 38.6079 6.13088 38.5681C6.14104 38.579 6.15331 38.5869 6.1677 38.5919C6.23738 38.5461 6.31102 38.5063 6.3886 38.4726C6.40299 38.4776 6.41526 38.4855 6.42542 38.4965C6.497 38.4597 6.56653 38.4199 6.63406 38.3772C6.64844 38.3822 6.66071 38.3901 6.67087 38.401C6.77308 38.3514 6.87126 38.2958 6.96542 38.234C6.97558 38.245 6.98785 38.2529 7.00223 38.2579C7.25144 38.1419 7.50097 38.0465 7.75086 37.9716C7.75881 37.9222 7.77928 37.9143 7.81222 37.9477C7.89884 37.8799 7.98065 37.848 8.05767 37.8523C8.13526 37.8186 8.2089 37.7788 8.27858 37.733C8.29296 37.738 8.30524 37.7458 8.3154 37.7568C8.38697 37.7201 8.45651 37.6802 8.52403 37.6375C8.56883 37.663 8.59747 37.6471 8.60994 37.5898C8.6201 37.6008 8.63237 37.6086 8.64676 37.6137C8.72346 37.5824 8.79302 37.5428 8.85539 37.4944C8.86555 37.5053 8.87783 37.5132 8.89221 37.5182C9.17568 37.3829 9.45385 37.2756 9.72674 37.1961C9.78607 37.1572 9.84743 37.1214 9.91083 37.0887C9.92099 37.0997 9.93327 37.1076 9.94765 37.1126C10.1079 37.036 10.2716 36.9682 10.4386 36.9098C10.3286 36.7611 10.2714 36.5941 10.2667 36.4087C10.3069 36.0568 10.4132 35.7268 10.5858 35.4185C10.7711 35.131 10.9797 34.8607 11.2117 34.6073C16.6838 29.2858 22.1532 23.9612 27.6202 18.633C27.7736 18.486 27.937 18.3509 28.1111 18.2273C28.103 18.2195 28.0946 18.2113 28.0865 18.2035C28.4012 17.9591 28.7203 17.7205 29.0438 17.4877C29.0732 17.4662 29.0936 17.4383 29.1051 17.4042C29.1152 17.4151 29.1275 17.423 29.142 17.428C29.2195 17.3724 29.289 17.3087 29.3506 17.2371C29.3683 17.2598 29.3886 17.2639 29.412 17.2491C29.5067 17.1727 29.6007 17.0973 29.6942 17.0224C29.9421 16.8995 30.1917 16.7642 30.4428 16.6168C30.6969 16.4991 30.9465 16.372 31.1915 16.235C31.2241 16.235 31.257 16.235 31.2897 16.235C31.3736 16.1661 31.4637 16.1262 31.5597 16.1157C31.7263 16.0208 31.9023 15.9413 32.0874 15.8771C32.1019 15.8821 32.1141 15.89 32.1242 15.901C32.1937 15.8672 32.2592 15.8274 32.3205 15.7817C32.3306 15.7926 32.3429 15.8005 32.3574 15.8055C32.4065 15.7817 32.4555 15.7578 32.5046 15.734C32.5191 15.7389 32.5314 15.7469 32.5415 15.7578C32.5905 15.726 32.6396 15.6942 32.6887 15.6624C32.6988 15.6733 32.7111 15.6812 32.7255 15.6862C32.8267 15.6596 32.9207 15.6199 33.0078 15.5669C33.065 15.5669 33.1224 15.5669 33.1796 15.5669C33.346 15.5078 33.5098 15.4521 33.6705 15.3999C33.7142 15.4233 33.7552 15.4153 33.7933 15.3761C33.8475 15.379 33.9008 15.379 33.9528 15.3761C33.9823 15.337 34.0151 15.329 34.051 15.3522C34.0817 15.3393 34.1101 15.3234 34.1369 15.3045C34.212 15.307 34.2856 15.307 34.3578 15.3045C34.4248 15.2758 34.4901 15.252 34.5542 15.2329C34.5951 15.2408 34.6359 15.2488 34.6769 15.2568C34.7341 15.2329 34.7915 15.209 34.8487 15.1852C34.9471 15.1978 35.0492 15.1978 35.1555 15.1852C35.1796 15.1738 35.1999 15.1579 35.2169 15.1375C35.307 15.1454 35.3968 15.1534 35.4869 15.1613C35.5114 15.1454 35.536 15.1295 35.5605 15.1136C35.6177 15.1215 35.6751 15.1295 35.7323 15.1375C35.7814 15.1215 35.8305 15.1056 35.8796 15.0897C36.0575 15.092 36.2375 15.0999 36.4196 15.1136C36.436 15.0977 36.4522 15.0818 36.4687 15.0659C36.5178 15.0659 36.5669 15.0659 36.616 15.0659C36.6933 15.092 36.7669 15.1078 36.8369 15.1136C36.8533 15.0977 36.8695 15.0818 36.8859 15.0659C36.935 15.0659 36.9841 15.0659 37.0332 15.0659C37.0578 15.0818 37.0823 15.0977 37.1069 15.1136C37.2237 15.0947 37.3464 15.0868 37.475 15.0897C37.4996 15.1056 37.5241 15.1215 37.5487 15.1375C37.6059 15.1295 37.6633 15.1215 37.7205 15.1136C37.745 15.1295 37.7696 15.1454 37.7941 15.1613C37.8678 15.1534 37.9414 15.1454 38.015 15.1375C38.0703 15.1769 38.1274 15.1849 38.1868 15.1613C38.2114 15.1772 38.2359 15.1931 38.2605 15.209C38.3123 15.2072 38.3614 15.1992 38.4077 15.1852C38.463 15.2247 38.5202 15.2326 38.5796 15.209C38.6041 15.2249 38.6287 15.2408 38.6532 15.2568C38.7413 15.2656 38.8233 15.2656 38.8986 15.2568C38.9887 15.2886 39.0786 15.3204 39.1686 15.3522C39.1998 15.3494 39.2325 15.3415 39.2668 15.3283C39.324 15.3522 39.3815 15.3761 39.4386 15.3999C39.4868 15.3676 39.5358 15.3756 39.5859 15.4238C39.6188 15.4067 39.6517 15.4147 39.6841 15.4476C39.7251 15.4476 39.7658 15.4476 39.8068 15.4476C39.8427 15.4935 39.8836 15.5094 39.9295 15.4954C40.0076 15.5277 40.0812 15.5516 40.1505 15.5669C40.1964 15.5529 40.2373 15.5688 40.2732 15.6147C40.2813 15.6067 40.2896 15.5987 40.2977 15.5908C40.4082 15.6425 40.5226 15.6823 40.6414 15.7101C40.6495 15.7021 40.6578 15.6942 40.6659 15.6862C40.6941 15.7159 40.727 15.7398 40.7641 15.7578C40.8051 15.7578 40.8458 15.7578 40.8868 15.7578C41.0422 15.8294 41.1978 15.901 41.3532 15.9726C41.3613 15.9647 41.3696 15.9566 41.3777 15.9487C41.4759 15.9964 41.5741 16.0441 41.6722 16.0919C41.6804 16.084 41.6887 16.0759 41.6968 16.068C41.7378 16.0997 41.7785 16.1317 41.8195 16.1634C41.8276 16.1556 41.836 16.1475 41.8441 16.1396C41.8799 16.1854 41.9209 16.2014 41.9668 16.1873C42.0078 16.219 42.0485 16.251 42.0895 16.2827C42.1222 16.2827 42.1551 16.2827 42.1877 16.2827C42.5242 16.4576 42.8759 16.6564 43.2431 16.8792C43.2512 16.8714 43.2596 16.8633 43.2677 16.8554C43.4064 16.9246 43.5374 17.02 43.6604 17.1417C43.6685 17.1338 43.6769 17.1257 43.685 17.1178C43.7512 17.1928 43.8249 17.2405 43.9059 17.261C44.102 17.3867 44.2902 17.5378 44.4704 17.7143C44.4785 17.7065 44.4868 17.6984 44.4949 17.6905C44.5521 17.7461 44.6096 17.8019 44.6668 17.8575C44.6749 17.8496 44.6832 17.8415 44.6913 17.8336C44.9034 18.0159 45.1078 18.2068 45.3049 18.4063C45.313 18.3984 45.3214 18.3903 45.3295 18.3824C48.4553 21.3967 49.7316 25.0551 49.1585 29.3581C48.7106 31.8273 47.6345 33.9748 45.9308 35.8003C38.3628 43.1413 30.8029 50.4902 23.2511 57.847C21.92 56.5915 20.975 55.0804 20.4162 53.3136C19.4299 49.8422 19.9822 46.6449 22.073 43.7218C22.4001 43.3401 22.7276 42.9583 23.0548 42.5765C29.0025 36.8105 34.9344 31.0445 40.85 25.278C41.1845 25.0277 41.5444 24.813 41.93 24.6338C41.9859 24.6455 42.039 24.6295 42.0895 24.586C42.0996 24.597 42.1119 24.6049 42.1263 24.6099C42.1919 24.586 42.2572 24.5622 42.3227 24.5383C42.4383 24.5562 42.5488 24.5562 42.6541 24.5383C42.6786 24.5543 42.7031 24.5701 42.7277 24.586C42.8381 24.5758 42.9363 24.6235 43.0222 24.7292C43.8153 22.7526 44.6294 20.7761 45.4645 18.8C45.4603 18.788 45.4564 18.7761 45.4522 18.7642C45.3128 18.809 45.1901 18.8649 45.084 18.9312C45.074 18.9202 45.0617 18.9124 45.0472 18.9073C44.9716 18.9381 44.9021 18.978 44.8386 19.0266C44.7455 19.0255 44.6596 19.0572 44.5808 19.1221C44.5664 19.1171 44.5541 19.1092 44.544 19.0982C44.2937 19.2097 44.0359 19.3208 43.7709 19.4323C43.7564 19.4273 43.7441 19.4194 43.734 19.4084C43.6528 19.4554 43.5708 19.5031 43.4886 19.5516C43.3985 19.547 43.3168 19.5788 43.2431 19.647C43.1629 19.6365 43.0809 19.6682 42.9977 19.7424C42.8961 19.746 42.7898 19.7859 42.6786 19.8617C42.6705 19.8539 42.6622 19.8458 42.6541 19.8379C42.4037 19.9493 42.146 20.0605 41.8809 20.1719C41.8664 20.1669 41.8541 20.159 41.8441 20.1481C41.7623 20.1958 41.6804 20.2435 41.5986 20.2912C41.5078 20.2872 41.4261 20.3189 41.3532 20.3867C41.3431 20.3757 41.3308 20.3678 41.3163 20.3628C41.2366 20.3996 41.159 20.4394 41.0832 20.4821C41.0751 20.4742 41.0667 20.4661 41.0586 20.4583C40.9526 20.5274 40.8544 20.5671 40.7641 20.5776C40.6882 20.6203 40.6107 20.6601 40.5309 20.6969C40.5164 20.6918 40.5041 20.684 40.4941 20.673C40.324 20.7238 40.1603 20.8035 40.0032 20.9116C39.9131 20.9071 39.8314 20.9388 39.7577 21.007C39.6608 21.0051 39.5626 21.0447 39.4632 21.1263C39.422 21.1001 39.3851 21.108 39.3527 21.1502C39.4762 21.3039 39.5253 21.479 39.5 21.6751C39.4958 21.7627 39.4919 21.85 39.4877 21.9376C39.2889 22.5987 38.9247 23.1516 38.3955 23.5959C36.6363 25.3376 34.8445 27.0794 33.0201 28.8212C31.4737 30.3561 29.9029 31.8832 28.3074 33.4023C26.7611 34.9373 25.1902 36.4643 23.5948 37.9835C23.3248 38.2777 23.0221 38.5721 22.6866 38.8663C21.3373 40.2834 19.7338 41.353 17.8757 42.0755C17.8161 42.0924 17.7589 42.1163 17.7039 42.1471C17.6894 42.1421 17.6772 42.1342 17.6671 42.1232C17.5949 42.1731 17.5294 42.2129 17.4707 42.2425C17.4094 42.2277 17.3522 42.2437 17.2989 42.2902C17.2908 42.2824 17.2825 42.2742 17.2744 42.2664C17.2211 42.3129 17.1639 42.3289 17.1026 42.3141C17.0493 42.3606 16.9921 42.3766 16.9307 42.3618C16.8895 42.4143 16.8404 42.4303 16.7835 42.4095C16.7329 42.453 16.6799 42.4689 16.6239 42.4572C16.5964 42.4842 16.5635 42.5002 16.5257 42.505C16.5176 42.4732 16.5093 42.4732 16.5012 42.505C16.3741 42.5241 16.2472 42.5637 16.1208 42.6243C16.0665 42.6214 16.0132 42.6214 15.9612 42.6243C15.8539 42.6636 15.7518 42.6954 15.6544 42.7197C15.6134 42.7118 15.5727 42.7037 15.5317 42.6959C15.5052 42.7409 15.4725 42.7491 15.4335 42.7197C15.3694 42.7388 15.3041 42.7627 15.2371 42.7913C15.1961 42.7834 15.1554 42.7753 15.1144 42.7674C15.098 42.7834 15.0818 42.7992 15.0653 42.8152C15.0243 42.8073 14.9836 42.7992 14.9426 42.7913C14.918 42.8073 14.8935 42.823 14.869 42.839C14.7664 42.8531 14.6682 42.8531 14.5744 42.839C14.5499 42.855 14.5253 42.8707 14.5008 42.8867C14.4379 42.8727 14.3724 42.8648 14.3044 42.8629C14.288 42.8789 14.2718 42.8946 14.2553 42.9106C13.988 42.9318 13.7261 42.9318 13.4699 42.9106C13.4453 42.9266 13.4208 42.9423 13.3962 42.9583C13.2325 42.9266 13.0691 42.9266 12.9053 42.9583C12.8808 42.9423 12.8563 42.9266 12.8317 42.9106C12.682 42.9125 12.5347 42.9206 12.3899 42.9345C12.3653 42.9185 12.3408 42.9027 12.3163 42.8867C12.2222 42.8824 12.1241 42.8905 12.0217 42.9106C11.9972 42.8946 11.9726 42.8789 11.9481 42.8629C11.8185 42.8569 11.6874 42.8569 11.5554 42.8629C11.5001 42.8235 11.4429 42.8154 11.3835 42.839C11.351 42.8061 11.3183 42.7982 11.2854 42.8152C11.1858 42.7813 11.0876 42.7574 10.9908 42.7436C10.9579 42.7605 10.9251 42.7526 10.8926 42.7197C10.8332 42.7433 10.776 42.7352 10.7208 42.6959C10.7126 42.7037 10.7045 42.7118 10.6963 42.7197C10.627 42.7044 10.5534 42.6806 10.4754 42.6481C10.4424 42.6651 10.4097 42.6572 10.3772 42.6243C10.369 42.6321 10.3608 42.6403 10.3526 42.6481C10.2299 42.6083 10.1072 42.5687 9.98447 42.5288C9.93643 42.561 9.88734 42.5532 9.8372 42.505C9.79628 42.505 9.75539 42.505 9.71447 42.505C9.55903 42.4494 9.40356 42.3935 9.24811 42.3379C9.20214 42.352 9.16122 42.336 9.12539 42.2902C9.08447 42.2902 9.04358 42.2902 9.00266 42.2902C8.92903 42.2504 8.85539 42.2108 8.78176 42.1709C8.77358 42.1788 8.76538 42.1869 8.75721 42.1948C8.70152 42.1526 8.64425 42.1366 8.58539 42.1471C8.51176 42.1072 8.43812 42.0676 8.36449 42.0278C8.35632 42.0356 8.34812 42.0438 8.33994 42.0516C8.30411 42.0058 8.26319 41.9898 8.21722 42.0039C8.1763 41.9722 8.13541 41.9402 8.09449 41.9085C8.08632 41.9163 8.07812 41.9245 8.06995 41.9323C7.96862 41.8848 7.86227 41.8293 7.75086 41.7653C7.74269 41.7732 7.73449 41.7813 7.72631 41.7892C7.6854 41.7574 7.64451 41.7255 7.60359 41.6937C7.59542 41.7016 7.58722 41.7097 7.57904 41.7176C7.53813 41.6859 7.49724 41.6539 7.45632 41.6221C7.44814 41.63 7.43995 41.6381 7.43177 41.646C7.39086 41.6143 7.34996 41.5823 7.30905 41.5506C7.30087 41.5584 7.29268 41.5666 7.2845 41.5744C7.18632 41.5107 7.08814 41.4473 6.98996 41.3835C6.95152 41.3969 6.9188 41.3809 6.89178 41.3358C6.82772 41.3322 6.77045 41.3003 6.71996 41.2404C6.71179 41.2483 6.70359 41.2564 6.69542 41.2642C6.57269 41.1767 6.44997 41.0894 6.32724 41.0018C6.31907 41.0097 6.31087 41.0178 6.3027 41.0256C6.02291 40.8235 5.73654 40.6169 5.44362 40.4053C5.43544 40.4132 5.42725 40.4213 5.41907 40.4291C5.30661 40.3172 5.18795 40.2137 5.06317 40.119C5.05499 40.0872 5.0468 40.0872 5.03862 40.119C1.67824 37.234 0.185065 33.6073 0.559133 29.2388C0.949376 26.3181 2.18483 23.8445 4.26545 21.8183C11.7026 14.5966 19.1398 7.37498 26.577 0.15332C28.9984 2.59915 30.0784 5.53394 29.8169 8.95769C29.5202 11.4773 28.5055 13.6247 26.7733 15.3999C22.0361 19.997 17.2989 24.5939 12.5617 29.191C12.4314 29.322 12.3128 29.4652 12.2058 29.6205C11.1639 30.6243 10.1248 31.6305 9.08857 32.6388C8.90137 32.7858 8.71318 32.9328 8.52403 33.0802C8.32978 33.1807 8.13752 33.284 7.94722 33.3904C7.93706 33.3794 7.92479 33.3716 7.9104 33.3666C7.81519 33.41 7.72111 33.4498 7.62813 33.4859C7.58447 33.4625 7.54358 33.4703 7.50541 33.5097C7.47109 33.4966 7.43835 33.4887 7.40723 33.4859C7.36265 33.5321 7.31356 33.5481 7.25996 33.5336C7.23541 33.5176 7.21087 33.5018 7.18632 33.4859C7.12086 33.5176 7.05542 33.5176 6.98996 33.4859C6.91299 33.4424 6.83935 33.3947 6.76905 33.3427C5.94635 35.3238 5.12409 37.3042 4.30227 39.2839C4.31044 39.2917 4.31864 39.2998 4.32681 39.3077C4.46211 39.255 4.6012 39.1913 4.74408 39.1168C4.77702 39.1502 4.79749 39.1424 4.80544 39.093C4.81362 39.1008 4.82181 39.109 4.82999 39.1168C4.90156 39.0801 4.9711 39.0402 5.03862 38.9975C5.14036 38.9901 5.23444 38.9505 5.32089 38.8782C5.34487 38.9085 5.36534 38.9085 5.38225 38.8782Z" fill="white"/>
<g clip-path="url(#paint0_diamond_284_332_clip_path)" data-figma-skip-parse="true"><g transform="matrix(0.05681 -0.0583154 0.0581744 0.0569476 -5.53365 69.2448)"><rect x="0" y="0" width="1094.9" height="556.484" fill="url(#paint0_diamond_284_332)" opacity="1" shape-rendering="crispEdges"/><rect x="0" y="0" width="1094.9" height="556.484" transform="scale(1 -1)" fill="url(#paint0_diamond_284_332)" opacity="1" shape-rendering="crispEdges"/><rect x="0" y="0" width="1094.9" height="556.484" transform="scale(-1 1)" fill="url(#paint0_diamond_284_332)" opacity="1" shape-rendering="crispEdges"/><rect x="0" y="0" width="1094.9" height="556.484" transform="scale(-1)" fill="url(#paint0_diamond_284_332)" opacity="1" shape-rendering="crispEdges"/></g></g><path fill-rule="evenodd" clip-rule="evenodd" d="M5.38225 38.8782C5.56983 38.8243 5.73754 38.7527 5.88543 38.6635C5.8936 38.6714 5.9018 38.6795 5.90997 38.6874C5.98361 38.6475 6.05725 38.6079 6.13088 38.5681C6.14104 38.579 6.15331 38.5869 6.1677 38.5919C6.23738 38.5461 6.31102 38.5063 6.3886 38.4726C6.40299 38.4776 6.41526 38.4855 6.42542 38.4965C6.497 38.4597 6.56653 38.4199 6.63406 38.3772C6.64844 38.3822 6.66071 38.3901 6.67087 38.401C6.77308 38.3514 6.87126 38.2958 6.96542 38.234C6.97558 38.245 6.98785 38.2529 7.00223 38.2579C7.25144 38.1419 7.50097 38.0465 7.75086 37.9716C7.75881 37.9222 7.77928 37.9143 7.81222 37.9477C7.89884 37.8799 7.98065 37.848 8.05767 37.8523C8.13526 37.8186 8.2089 37.7788 8.27858 37.733C8.29296 37.738 8.30524 37.7458 8.3154 37.7568C8.38697 37.7201 8.45651 37.6802 8.52403 37.6375C8.56883 37.663 8.59747 37.6471 8.60994 37.5898C8.6201 37.6008 8.63237 37.6086 8.64676 37.6137C8.72346 37.5824 8.79302 37.5428 8.85539 37.4944C8.86555 37.5053 8.87783 37.5132 8.89221 37.5182C9.17568 37.3829 9.45385 37.2756 9.72674 37.1961C9.78607 37.1572 9.84743 37.1214 9.91083 37.0887C9.92099 37.0997 9.93327 37.1076 9.94765 37.1126C10.1079 37.036 10.2716 36.9682 10.4386 36.9098C10.3286 36.7611 10.2714 36.5941 10.2667 36.4087C10.3069 36.0568 10.4132 35.7268 10.5858 35.4185C10.7711 35.131 10.9797 34.8607 11.2117 34.6073C16.6838 29.2858 22.1532 23.9612 27.6202 18.633C27.7736 18.486 27.937 18.3509 28.1111 18.2273C28.103 18.2195 28.0946 18.2113 28.0865 18.2035C28.4012 17.9591 28.7203 17.7205 29.0438 17.4877C29.0732 17.4662 29.0936 17.4383 29.1051 17.4042C29.1152 17.4151 29.1275 17.423 29.142 17.428C29.2195 17.3724 29.289 17.3087 29.3506 17.2371C29.3683 17.2598 29.3886 17.2639 29.412 17.2491C29.5067 17.1727 29.6007 17.0973 29.6942 17.0224C29.9421 16.8995 30.1917 16.7642 30.4428 16.6168C30.6969 16.4991 30.9465 16.372 31.1915 16.235C31.2241 16.235 31.257 16.235 31.2897 16.235C31.3736 16.1661 31.4637 16.1262 31.5597 16.1157C31.7263 16.0208 31.9023 15.9413 32.0874 15.8771C32.1019 15.8821 32.1141 15.89 32.1242 15.901C32.1937 15.8672 32.2592 15.8274 32.3205 15.7817C32.3306 15.7926 32.3429 15.8005 32.3574 15.8055C32.4065 15.7817 32.4555 15.7578 32.5046 15.734C32.5191 15.7389 32.5314 15.7469 32.5415 15.7578C32.5905 15.726 32.6396 15.6942 32.6887 15.6624C32.6988 15.6733 32.7111 15.6812 32.7255 15.6862C32.8267 15.6596 32.9207 15.6199 33.0078 15.5669C33.065 15.5669 33.1224 15.5669 33.1796 15.5669C33.346 15.5078 33.5098 15.4521 33.6705 15.3999C33.7142 15.4233 33.7552 15.4153 33.7933 15.3761C33.8475 15.379 33.9008 15.379 33.9528 15.3761C33.9823 15.337 34.0151 15.329 34.051 15.3522C34.0817 15.3393 34.1101 15.3234 34.1369 15.3045C34.212 15.307 34.2856 15.307 34.3578 15.3045C34.4248 15.2758 34.4901 15.252 34.5542 15.2329C34.5951 15.2408 34.6359 15.2488 34.6769 15.2568C34.7341 15.2329 34.7915 15.209 34.8487 15.1852C34.9471 15.1978 35.0492 15.1978 35.1555 15.1852C35.1796 15.1738 35.1999 15.1579 35.2169 15.1375C35.307 15.1454 35.3968 15.1534 35.4869 15.1613C35.5114 15.1454 35.536 15.1295 35.5605 15.1136C35.6177 15.1215 35.6751 15.1295 35.7323 15.1375C35.7814 15.1215 35.8305 15.1056 35.8796 15.0897C36.0575 15.092 36.2375 15.0999 36.4196 15.1136C36.436 15.0977 36.4522 15.0818 36.4687 15.0659C36.5178 15.0659 36.5669 15.0659 36.616 15.0659C36.6933 15.092 36.7669 15.1078 36.8369 15.1136C36.8533 15.0977 36.8695 15.0818 36.8859 15.0659C36.935 15.0659 36.9841 15.0659 37.0332 15.0659C37.0578 15.0818 37.0823 15.0977 37.1069 15.1136C37.2237 15.0947 37.3464 15.0868 37.475 15.0897C37.4996 15.1056 37.5241 15.1215 37.5487 15.1375C37.6059 15.1295 37.6633 15.1215 37.7205 15.1136C37.745 15.1295 37.7696 15.1454 37.7941 15.1613C37.8678 15.1534 37.9414 15.1454 38.015 15.1375C38.0703 15.1769 38.1274 15.1849 38.1868 15.1613C38.2114 15.1772 38.2359 15.1931 38.2605 15.209C38.3123 15.2072 38.3614 15.1992 38.4077 15.1852C38.463 15.2247 38.5202 15.2326 38.5796 15.209C38.6041 15.2249 38.6287 15.2408 38.6532 15.2568C38.7413 15.2656 38.8233 15.2656 38.8986 15.2568C38.9887 15.2886 39.0786 15.3204 39.1686 15.3522C39.1998 15.3494 39.2325 15.3415 39.2668 15.3283C39.324 15.3522 39.3815 15.3761 39.4386 15.3999C39.4868 15.3676 39.5358 15.3756 39.5859 15.4238C39.6188 15.4067 39.6517 15.4147 39.6841 15.4476C39.7251 15.4476 39.7658 15.4476 39.8068 15.4476C39.8427 15.4935 39.8836 15.5094 39.9295 15.4954C40.0076 15.5277 40.0812 15.5516 40.1505 15.5669C40.1964 15.5529 40.2373 15.5688 40.2732 15.6147C40.2813 15.6067 40.2896 15.5987 40.2977 15.5908C40.4082 15.6425 40.5226 15.6823 40.6414 15.7101C40.6495 15.7021 40.6578 15.6942 40.6659 15.6862C40.6941 15.7159 40.727 15.7398 40.7641 15.7578C40.8051 15.7578 40.8458 15.7578 40.8868 15.7578C41.0422 15.8294 41.1978 15.901 41.3532 15.9726C41.3613 15.9647 41.3696 15.9566 41.3777 15.9487C41.4759 15.9964 41.5741 16.0441 41.6722 16.0919C41.6804 16.084 41.6887 16.0759 41.6968 16.068C41.7378 16.0997 41.7785 16.1317 41.8195 16.1634C41.8276 16.1556 41.836 16.1475 41.8441 16.1396C41.8799 16.1854 41.9209 16.2014 41.9668 16.1873C42.0078 16.219 42.0485 16.251 42.0895 16.2827C42.1222 16.2827 42.1551 16.2827 42.1877 16.2827C42.5242 16.4576 42.8759 16.6564 43.2431 16.8792C43.2512 16.8714 43.2596 16.8633 43.2677 16.8554C43.4064 16.9246 43.5374 17.02 43.6604 17.1417C43.6685 17.1338 43.6769 17.1257 43.685 17.1178C43.7512 17.1928 43.8249 17.2405 43.9059 17.261C44.102 17.3867 44.2902 17.5378 44.4704 17.7143C44.4785 17.7065 44.4868 17.6984 44.4949 17.6905C44.5521 17.7461 44.6096 17.8019 44.6668 17.8575C44.6749 17.8496 44.6832 17.8415 44.6913 17.8336C44.9034 18.0159 45.1078 18.2068 45.3049 18.4063C45.313 18.3984 45.3214 18.3903 45.3295 18.3824C48.4553 21.3967 49.7316 25.0551 49.1585 29.3581C48.7106 31.8273 47.6345 33.9748 45.9308 35.8003C38.3628 43.1413 30.8029 50.4902 23.2511 57.847C21.92 56.5915 20.975 55.0804 20.4162 53.3136C19.4299 49.8422 19.9822 46.6449 22.073 43.7218C22.4001 43.3401 22.7276 42.9583 23.0548 42.5765C29.0025 36.8105 34.9344 31.0445 40.85 25.278C41.1845 25.0277 41.5444 24.813 41.93 24.6338C41.9859 24.6455 42.039 24.6295 42.0895 24.586C42.0996 24.597 42.1119 24.6049 42.1263 24.6099C42.1919 24.586 42.2572 24.5622 42.3227 24.5383C42.4383 24.5562 42.5488 24.5562 42.6541 24.5383C42.6786 24.5543 42.7031 24.5701 42.7277 24.586C42.8381 24.5758 42.9363 24.6235 43.0222 24.7292C43.8153 22.7526 44.6294 20.7761 45.4645 18.8C45.4603 18.788 45.4564 18.7761 45.4522 18.7642C45.3128 18.809 45.1901 18.8649 45.084 18.9312C45.074 18.9202 45.0617 18.9124 45.0472 18.9073C44.9716 18.9381 44.9021 18.978 44.8386 19.0266C44.7455 19.0255 44.6596 19.0572 44.5808 19.1221C44.5664 19.1171 44.5541 19.1092 44.544 19.0982C44.2937 19.2097 44.0359 19.3208 43.7709 19.4323C43.7564 19.4273 43.7441 19.4194 43.734 19.4084C43.6528 19.4554 43.5708 19.5031 43.4886 19.5516C43.3985 19.547 43.3168 19.5788 43.2431 19.647C43.1629 19.6365 43.0809 19.6682 42.9977 19.7424C42.8961 19.746 42.7898 19.7859 42.6786 19.8617C42.6705 19.8539 42.6622 19.8458 42.6541 19.8379C42.4037 19.9493 42.146 20.0605 41.8809 20.1719C41.8664 20.1669 41.8541 20.159 41.8441 20.1481C41.7623 20.1958 41.6804 20.2435 41.5986 20.2912C41.5078 20.2872 41.4261 20.3189 41.3532 20.3867C41.3431 20.3757 41.3308 20.3678 41.3163 20.3628C41.2366 20.3996 41.159 20.4394 41.0832 20.4821C41.0751 20.4742 41.0667 20.4661 41.0586 20.4583C40.9526 20.5274 40.8544 20.5671 40.7641 20.5776C40.6882 20.6203 40.6107 20.6601 40.5309 20.6969C40.5164 20.6918 40.5041 20.684 40.4941 20.673C40.324 20.7238 40.1603 20.8035 40.0032 20.9116C39.9131 20.9071 39.8314 20.9388 39.7577 21.007C39.6608 21.0051 39.5626 21.0447 39.4632 21.1263C39.422 21.1001 39.3851 21.108 39.3527 21.1502C39.4762 21.3039 39.5253 21.479 39.5 21.6751C39.4958 21.7627 39.4919 21.85 39.4877 21.9376C39.2889 22.5987 38.9247 23.1516 38.3955 23.5959C36.6363 25.3376 34.8445 27.0794 33.0201 28.8212C31.4737 30.3561 29.9029 31.8832 28.3074 33.4023C26.7611 34.9373 25.1902 36.4643 23.5948 37.9835C23.3248 38.2777 23.0221 38.5721 22.6866 38.8663C21.3373 40.2834 19.7338 41.353 17.8757 42.0755C17.8161 42.0924 17.7589 42.1163 17.7039 42.1471C17.6894 42.1421 17.6772 42.1342 17.6671 42.1232C17.5949 42.1731 17.5294 42.2129 17.4707 42.2425C17.4094 42.2277 17.3522 42.2437 17.2989 42.2902C17.2908 42.2824 17.2825 42.2742 17.2744 42.2664C17.2211 42.3129 17.1639 42.3289 17.1026 42.3141C17.0493 42.3606 16.9921 42.3766 16.9307 42.3618C16.8895 42.4143 16.8404 42.4303 16.7835 42.4095C16.7329 42.453 16.6799 42.4689 16.6239 42.4572C16.5964 42.4842 16.5635 42.5002 16.5257 42.505C16.5176 42.4732 16.5093 42.4732 16.5012 42.505C16.3741 42.5241 16.2472 42.5637 16.1208 42.6243C16.0665 42.6214 16.0132 42.6214 15.9612 42.6243C15.8539 42.6636 15.7518 42.6954 15.6544 42.7197C15.6134 42.7118 15.5727 42.7037 15.5317 42.6959C15.5052 42.7409 15.4725 42.7491 15.4335 42.7197C15.3694 42.7388 15.3041 42.7627 15.2371 42.7913C15.1961 42.7834 15.1554 42.7753 15.1144 42.7674C15.098 42.7834 15.0818 42.7992 15.0653 42.8152C15.0243 42.8073 14.9836 42.7992 14.9426 42.7913C14.918 42.8073 14.8935 42.823 14.869 42.839C14.7664 42.8531 14.6682 42.8531 14.5744 42.839C14.5499 42.855 14.5253 42.8707 14.5008 42.8867C14.4379 42.8727 14.3724 42.8648 14.3044 42.8629C14.288 42.8789 14.2718 42.8946 14.2553 42.9106C13.988 42.9318 13.7261 42.9318 13.4699 42.9106C13.4453 42.9266 13.4208 42.9423 13.3962 42.9583C13.2325 42.9266 13.0691 42.9266 12.9053 42.9583C12.8808 42.9423 12.8563 42.9266 12.8317 42.9106C12.682 42.9125 12.5347 42.9206 12.3899 42.9345C12.3653 42.9185 12.3408 42.9027 12.3163 42.8867C12.2222 42.8824 12.1241 42.8905 12.0217 42.9106C11.9972 42.8946 11.9726 42.8789 11.9481 42.8629C11.8185 42.8569 11.6874 42.8569 11.5554 42.8629C11.5001 42.8235 11.4429 42.8154 11.3835 42.839C11.351 42.8061 11.3183 42.7982 11.2854 42.8152C11.1858 42.7813 11.0876 42.7574 10.9908 42.7436C10.9579 42.7605 10.9251 42.7526 10.8926 42.7197C10.8332 42.7433 10.776 42.7352 10.7208 42.6959C10.7126 42.7037 10.7045 42.7118 10.6963 42.7197C10.627 42.7044 10.5534 42.6806 10.4754 42.6481C10.4424 42.6651 10.4097 42.6572 10.3772 42.6243C10.369 42.6321 10.3608 42.6403 10.3526 42.6481C10.2299 42.6083 10.1072 42.5687 9.98447 42.5288C9.93643 42.561 9.88734 42.5532 9.8372 42.505C9.79628 42.505 9.75539 42.505 9.71447 42.505C9.55903 42.4494 9.40356 42.3935 9.24811 42.3379C9.20214 42.352 9.16122 42.336 9.12539 42.2902C9.08447 42.2902 9.04358 42.2902 9.00266 42.2902C8.92903 42.2504 8.85539 42.2108 8.78176 42.1709C8.77358 42.1788 8.76538 42.1869 8.75721 42.1948C8.70152 42.1526 8.64425 42.1366 8.58539 42.1471C8.51176 42.1072 8.43812 42.0676 8.36449 42.0278C8.35632 42.0356 8.34812 42.0438 8.33994 42.0516C8.30411 42.0058 8.26319 41.9898 8.21722 42.0039C8.1763 41.9722 8.13541 41.9402 8.09449 41.9085C8.08632 41.9163 8.07812 41.9245 8.06995 41.9323C7.96862 41.8848 7.86227 41.8293 7.75086 41.7653C7.74269 41.7732 7.73449 41.7813 7.72631 41.7892C7.6854 41.7574 7.64451 41.7255 7.60359 41.6937C7.59542 41.7016 7.58722 41.7097 7.57904 41.7176C7.53813 41.6859 7.49724 41.6539 7.45632 41.6221C7.44814 41.63 7.43995 41.6381 7.43177 41.646C7.39086 41.6143 7.34996 41.5823 7.30905 41.5506C7.30087 41.5584 7.29268 41.5666 7.2845 41.5744C7.18632 41.5107 7.08814 41.4473 6.98996 41.3835C6.95152 41.3969 6.9188 41.3809 6.89178 41.3358C6.82772 41.3322 6.77045 41.3003 6.71996 41.2404C6.71179 41.2483 6.70359 41.2564 6.69542 41.2642C6.57269 41.1767 6.44997 41.0894 6.32724 41.0018C6.31907 41.0097 6.31087 41.0178 6.3027 41.0256C6.02291 40.8235 5.73654 40.6169 5.44362 40.4053C5.43544 40.4132 5.42725 40.4213 5.41907 40.4291C5.30661 40.3172 5.18795 40.2137 5.06317 40.119C5.05499 40.0872 5.0468 40.0872 5.03862 40.119C1.67824 37.234 0.185065 33.6073 0.559133 29.2388C0.949376 26.3181 2.18483 23.8445 4.26545 21.8183C11.7026 14.5966 19.1398 7.37498 26.577 0.15332C28.9984 2.59915 30.0784 5.53394 29.8169 8.95769C29.5202 11.4773 28.5055 13.6247 26.7733 15.3999C22.0361 19.997 17.2989 24.5939 12.5617 29.191C12.4314 29.322 12.3128 29.4652 12.2058 29.6205C11.1639 30.6243 10.1248 31.6305 9.08857 32.6388C8.90137 32.7858 8.71318 32.9328 8.52403 33.0802C8.32978 33.1807 8.13752 33.284 7.94722 33.3904C7.93706 33.3794 7.92479 33.3716 7.9104 33.3666C7.81519 33.41 7.72111 33.4498 7.62813 33.4859C7.58447 33.4625 7.54358 33.4703 7.50541 33.5097C7.47109 33.4966 7.43835 33.4887 7.40723 33.4859C7.36265 33.5321 7.31356 33.5481 7.25996 33.5336C7.23541 33.5176 7.21087 33.5018 7.18632 33.4859C7.12086 33.5176 7.05542 33.5176 6.98996 33.4859C6.91299 33.4424 6.83935 33.3947 6.76905 33.3427C5.94635 35.3238 5.12409 37.3042 4.30227 39.2839C4.31044 39.2917 4.31864 39.2998 4.32681 39.3077C4.46211 39.255 4.6012 39.1913 4.74408 39.1168C4.77702 39.1502 4.79749 39.1424 4.80544 39.093C4.81362 39.1008 4.82181 39.109 4.82999 39.1168C4.90156 39.0801 4.9711 39.0402 5.03862 38.9975C5.14036 38.9901 5.23444 38.9505 5.32089 38.8782C5.34487 38.9085 5.36534 38.9085 5.38225 38.8782Z" data-figma-gradient-fill="{&#34;type&#34;:&#34;GRADIENT_DIAMOND&#34;,&#34;stops&#34;:[{&#34;color&#34;:{&#34;r&#34;:0.27843138575553894,&#34;g&#34;:0.87058824300765991,&#34;b&#34;:0.56078433990478516,&#34;a&#34;:1.0},&#34;position&#34;:0.45192307233810425},{&#34;color&#34;:{&#34;r&#34;:0.90980392694473267,&#34;g&#34;:0.58039218187332153,&#34;b&#34;:0.019607843831181526,&#34;a&#34;:1.0},&#34;position&#34;:0.61149358749389648},{&#34;color&#34;:{&#34;r&#34;:0.93333333730697632,&#34;g&#34;:0.32549020648002625,&#34;b&#34;:0.30588236451148987,&#34;a&#34;:1.0},&#34;position&#34;:0.76976293325424194},{&#34;color&#34;:{&#34;r&#34;:0.13461539149284363,&#34;g&#34;:0.40865385532379150,&#34;b&#34;:1.0,&#34;a&#34;:1.0},&#34;position&#34;:0.91515010595321655}],&#34;stopsVar&#34;:[{&#34;color&#34;:{&#34;r&#34;:0.27843138575553894,&#34;g&#34;:0.87058824300765991,&#34;b&#34;:0.56078433990478516,&#34;a&#34;:1.0},&#34;position&#34;:0.45192307233810425},{&#34;color&#34;:{&#34;r&#34;:0.90980392694473267,&#34;g&#34;:0.58039218187332153,&#34;b&#34;:0.019607843831181526,&#34;a&#34;:1.0},&#34;position&#34;:0.61149358749389648},{&#34;color&#34;:{&#34;r&#34;:0.93333333730697632,&#34;g&#34;:0.32549020648002625,&#34;b&#34;:0.30588236451148987,&#34;a&#34;:1.0},&#34;position&#34;:0.76976293325424194},{&#34;color&#34;:{&#34;r&#34;:0.13461539149284363,&#34;g&#34;:0.40865385532379150,&#34;b&#34;:1.0,&#34;a&#34;:1.0},&#34;position&#34;:0.91515010595321655}],&#34;transform&#34;:{&#34;m00&#34;:113.62000274658203,&#34;m01&#34;:116.34889221191406,&#34;m02&#34;:-120.51809692382812,&#34;m10&#34;:-116.63077545166016,&#34;m11&#34;:113.89529418945312,&#34;m12&#34;:70.612564086914062},&#34;opacity&#34;:1.0,&#34;blendMode&#34;:&#34;NORMAL&#34;,&#34;visible&#34;:true}"/>
</g>
<defs>
<clipPath id="paint0_diamond_284_332_clip_path"><path fill-rule="evenodd" clip-rule="evenodd" d="M5.38225 38.8782C5.56983 38.8243 5.73754 38.7527 5.88543 38.6635C5.8936 38.6714 5.9018 38.6795 5.90997 38.6874C5.98361 38.6475 6.05725 38.6079 6.13088 38.5681C6.14104 38.579 6.15331 38.5869 6.1677 38.5919C6.23738 38.5461 6.31102 38.5063 6.3886 38.4726C6.40299 38.4776 6.41526 38.4855 6.42542 38.4965C6.497 38.4597 6.56653 38.4199 6.63406 38.3772C6.64844 38.3822 6.66071 38.3901 6.67087 38.401C6.77308 38.3514 6.87126 38.2958 6.96542 38.234C6.97558 38.245 6.98785 38.2529 7.00223 38.2579C7.25144 38.1419 7.50097 38.0465 7.75086 37.9716C7.75881 37.9222 7.77928 37.9143 7.81222 37.9477C7.89884 37.8799 7.98065 37.848 8.05767 37.8523C8.13526 37.8186 8.2089 37.7788 8.27858 37.733C8.29296 37.738 8.30524 37.7458 8.3154 37.7568C8.38697 37.7201 8.45651 37.6802 8.52403 37.6375C8.56883 37.663 8.59747 37.6471 8.60994 37.5898C8.6201 37.6008 8.63237 37.6086 8.64676 37.6137C8.72346 37.5824 8.79302 37.5428 8.85539 37.4944C8.86555 37.5053 8.87783 37.5132 8.89221 37.5182C9.17568 37.3829 9.45385 37.2756 9.72674 37.1961C9.78607 37.1572 9.84743 37.1214 9.91083 37.0887C9.92099 37.0997 9.93327 37.1076 9.94765 37.1126C10.1079 37.036 10.2716 36.9682 10.4386 36.9098C10.3286 36.7611 10.2714 36.5941 10.2667 36.4087C10.3069 36.0568 10.4132 35.7268 10.5858 35.4185C10.7711 35.131 10.9797 34.8607 11.2117 34.6073C16.6838 29.2858 22.1532 23.9612 27.6202 18.633C27.7736 18.486 27.937 18.3509 28.1111 18.2273C28.103 18.2195 28.0946 18.2113 28.0865 18.2035C28.4012 17.9591 28.7203 17.7205 29.0438 17.4877C29.0732 17.4662 29.0936 17.4383 29.1051 17.4042C29.1152 17.4151 29.1275 17.423 29.142 17.428C29.2195 17.3724 29.289 17.3087 29.3506 17.2371C29.3683 17.2598 29.3886 17.2639 29.412 17.2491C29.5067 17.1727 29.6007 17.0973 29.6942 17.0224C29.9421 16.8995 30.1917 16.7642 30.4428 16.6168C30.6969 16.4991 30.9465 16.372 31.1915 16.235C31.2241 16.235 31.257 16.235 31.2897 16.235C31.3736 16.1661 31.4637 16.1262 31.5597 16.1157C31.7263 16.0208 31.9023 15.9413 32.0874 15.8771C32.1019 15.8821 32.1141 15.89 32.1242 15.901C32.1937 15.8672 32.2592 15.8274 32.3205 15.7817C32.3306 15.7926 32.3429 15.8005 32.3574 15.8055C32.4065 15.7817 32.4555 15.7578 32.5046 15.734C32.5191 15.7389 32.5314 15.7469 32.5415 15.7578C32.5905 15.726 32.6396 15.6942 32.6887 15.6624C32.6988 15.6733 32.7111 15.6812 32.7255 15.6862C32.8267 15.6596 32.9207 15.6199 33.0078 15.5669C33.065 15.5669 33.1224 15.5669 33.1796 15.5669C33.346 15.5078 33.5098 15.4521 33.6705 15.3999C33.7142 15.4233 33.7552 15.4153 33.7933 15.3761C33.8475 15.379 33.9008 15.379 33.9528 15.3761C33.9823 15.337 34.0151 15.329 34.051 15.3522C34.0817 15.3393 34.1101 15.3234 34.1369 15.3045C34.212 15.307 34.2856 15.307 34.3578 15.3045C34.4248 15.2758 34.4901 15.252 34.5542 15.2329C34.5951 15.2408 34.6359 15.2488 34.6769 15.2568C34.7341 15.2329 34.7915 15.209 34.8487 15.1852C34.9471 15.1978 35.0492 15.1978 35.1555 15.1852C35.1796 15.1738 35.1999 15.1579 35.2169 15.1375C35.307 15.1454 35.3968 15.1534 35.4869 15.1613C35.5114 15.1454 35.536 15.1295 35.5605 15.1136C35.6177 15.1215 35.6751 15.1295 35.7323 15.1375C35.7814 15.1215 35.8305 15.1056 35.8796 15.0897C36.0575 15.092 36.2375 15.0999 36.4196 15.1136C36.436 15.0977 36.4522 15.0818 36.4687 15.0659C36.5178 15.0659 36.5669 15.0659 36.616 15.0659C36.6933 15.092 36.7669 15.1078 36.8369 15.1136C36.8533 15.0977 36.8695 15.0818 36.8859 15.0659C36.935 15.0659 36.9841 15.0659 37.0332 15.0659C37.0578 15.0818 37.0823 15.0977 37.1069 15.1136C37.2237 15.0947 37.3464 15.0868 37.475 15.0897C37.4996 15.1056 37.5241 15.1215 37.5487 15.1375C37.6059 15.1295 37.6633 15.1215 37.7205 15.1136C37.745 15.1295 37.7696 15.1454 37.7941 15.1613C37.8678 15.1534 37.9414 15.1454 38.015 15.1375C38.0703 15.1769 38.1274 15.1849 38.1868 15.1613C38.2114 15.1772 38.2359 15.1931 38.2605 15.209C38.3123 15.2072 38.3614 15.1992 38.4077 15.1852C38.463 15.2247 38.5202 15.2326 38.5796 15.209C38.6041 15.2249 38.6287 15.2408 38.6532 15.2568C38.7413 15.2656 38.8233 15.2656 38.8986 15.2568C38.9887 15.2886 39.0786 15.3204 39.1686 15.3522C39.1998 15.3494 39.2325 15.3415 39.2668 15.3283C39.324 15.3522 39.3815 15.3761 39.4386 15.3999C39.4868 15.3676 39.5358 15.3756 39.5859 15.4238C39.6188 15.4067 39.6517 15.4147 39.6841 15.4476C39.7251 15.4476 39.7658 15.4476 39.8068 15.4476C39.8427 15.4935 39.8836 15.5094 39.9295 15.4954C40.0076 15.5277 40.0812 15.5516 40.1505 15.5669C40.1964 15.5529 40.2373 15.5688 40.2732 15.6147C40.2813 15.6067 40.2896 15.5987 40.2977 15.5908C40.4082 15.6425 40.5226 15.6823 40.6414 15.7101C40.6495 15.7021 40.6578 15.6942 40.6659 15.6862C40.6941 15.7159 40.727 15.7398 40.7641 15.7578C40.8051 15.7578 40.8458 15.7578 40.8868 15.7578C41.0422 15.8294 41.1978 15.901 41.3532 15.9726C41.3613 15.9647 41.3696 15.9566 41.3777 15.9487C41.4759 15.9964 41.5741 16.0441 41.6722 16.0919C41.6804 16.084 41.6887 16.0759 41.6968 16.068C41.7378 16.0997 41.7785 16.1317 41.8195 16.1634C41.8276 16.1556 41.836 16.1475 41.8441 16.1396C41.8799 16.1854 41.9209 16.2014 41.9668 16.1873C42.0078 16.219 42.0485 16.251 42.0895 16.2827C42.1222 16.2827 42.1551 16.2827 42.1877 16.2827C42.5242 16.4576 42.8759 16.6564 43.2431 16.8792C43.2512 16.8714 43.2596 16.8633 43.2677 16.8554C43.4064 16.9246 43.5374 17.02 43.6604 17.1417C43.6685 17.1338 43.6769 17.1257 43.685 17.1178C43.7512 17.1928 43.8249 17.2405 43.9059 17.261C44.102 17.3867 44.2902 17.5378 44.4704 17.7143C44.4785 17.7065 44.4868 17.6984 44.4949 17.6905C44.5521 17.7461 44.6096 17.8019 44.6668 17.8575C44.6749 17.8496 44.6832 17.8415 44.6913 17.8336C44.9034 18.0159 45.1078 18.2068 45.3049 18.4063C45.313 18.3984 45.3214 18.3903 45.3295 18.3824C48.4553 21.3967 49.7316 25.0551 49.1585 29.3581C48.7106 31.8273 47.6345 33.9748 45.9308 35.8003C38.3628 43.1413 30.8029 50.4902 23.2511 57.847C21.92 56.5915 20.975 55.0804 20.4162 53.3136C19.4299 49.8422 19.9822 46.6449 22.073 43.7218C22.4001 43.3401 22.7276 42.9583 23.0548 42.5765C29.0025 36.8105 34.9344 31.0445 40.85 25.278C41.1845 25.0277 41.5444 24.813 41.93 24.6338C41.9859 24.6455 42.039 24.6295 42.0895 24.586C42.0996 24.597 42.1119 24.6049 42.1263 24.6099C42.1919 24.586 42.2572 24.5622 42.3227 24.5383C42.4383 24.5562 42.5488 24.5562 42.6541 24.5383C42.6786 24.5543 42.7031 24.5701 42.7277 24.586C42.8381 24.5758 42.9363 24.6235 43.0222 24.7292C43.8153 22.7526 44.6294 20.7761 45.4645 18.8C45.4603 18.788 45.4564 18.7761 45.4522 18.7642C45.3128 18.809 45.1901 18.8649 45.084 18.9312C45.074 18.9202 45.0617 18.9124 45.0472 18.9073C44.9716 18.9381 44.9021 18.978 44.8386 19.0266C44.7455 19.0255 44.6596 19.0572 44.5808 19.1221C44.5664 19.1171 44.5541 19.1092 44.544 19.0982C44.2937 19.2097 44.0359 19.3208 43.7709 19.4323C43.7564 19.4273 43.7441 19.4194 43.734 19.4084C43.6528 19.4554 43.5708 19.5031 43.4886 19.5516C43.3985 19.547 43.3168 19.5788 43.2431 19.647C43.1629 19.6365 43.0809 19.6682 42.9977 19.7424C42.8961 19.746 42.7898 19.7859 42.6786 19.8617C42.6705 19.8539 42.6622 19.8458 42.6541 19.8379C42.4037 19.9493 42.146 20.0605 41.8809 20.1719C41.8664 20.1669 41.8541 20.159 41.8441 20.1481C41.7623 20.1958 41.6804 20.2435 41.5986 20.2912C41.5078 20.2872 41.4261 20.3189 41.3532 20.3867C41.3431 20.3757 41.3308 20.3678 41.3163 20.3628C41.2366 20.3996 41.159 20.4394 41.0832 20.4821C41.0751 20.4742 41.0667 20.4661 41.0586 20.4583C40.9526 20.5274 40.8544 20.5671 40.7641 20.5776C40.6882 20.6203 40.6107 20.6601 40.5309 20.6969C40.5164 20.6918 40.5041 20.684 40.4941 20.673C40.324 20.7238 40.1603 20.8035 40.0032 20.9116C39.9131 20.9071 39.8314 20.9388 39.7577 21.007C39.6608 21.0051 39.5626 21.0447 39.4632 21.1263C39.422 21.1001 39.3851 21.108 39.3527 21.1502C39.4762 21.3039 39.5253 21.479 39.5 21.6751C39.4958 21.7627 39.4919 21.85 39.4877 21.9376C39.2889 22.5987 38.9247 23.1516 38.3955 23.5959C36.6363 25.3376 34.8445 27.0794 33.0201 28.8212C31.4737 30.3561 29.9029 31.8832 28.3074 33.4023C26.7611 34.9373 25.1902 36.4643 23.5948 37.9835C23.3248 38.2777 23.0221 38.5721 22.6866 38.8663C21.3373 40.2834 19.7338 41.353 17.8757 42.0755C17.8161 42.0924 17.7589 42.1163 17.7039 42.1471C17.6894 42.1421 17.6772 42.1342 17.6671 42.1232C17.5949 42.1731 17.5294 42.2129 17.4707 42.2425C17.4094 42.2277 17.3522 42.2437 17.2989 42.2902C17.2908 42.2824 17.2825 42.2742 17.2744 42.2664C17.2211 42.3129 17.1639 42.3289 17.1026 42.3141C17.0493 42.3606 16.9921 42.3766 16.9307 42.3618C16.8895 42.4143 16.8404 42.4303 16.7835 42.4095C16.7329 42.453 16.6799 42.4689 16.6239 42.4572C16.5964 42.4842 16.5635 42.5002 16.5257 42.505C16.5176 42.4732 16.5093 42.4732 16.5012 42.505C16.3741 42.5241 16.2472 42.5637 16.1208 42.6243C16.0665 42.6214 16.0132 42.6214 15.9612 42.6243C15.8539 42.6636 15.7518 42.6954 15.6544 42.7197C15.6134 42.7118 15.5727 42.7037 15.5317 42.6959C15.5052 42.7409 15.4725 42.7491 15.4335 42.7197C15.3694 42.7388 15.3041 42.7627 15.2371 42.7913C15.1961 42.7834 15.1554 42.7753 15.1144 42.7674C15.098 42.7834 15.0818 42.7992 15.0653 42.8152C15.0243 42.8073 14.9836 42.7992 14.9426 42.7913C14.918 42.8073 14.8935 42.823 14.869 42.839C14.7664 42.8531 14.6682 42.8531 14.5744 42.839C14.5499 42.855 14.5253 42.8707 14.5008 42.8867C14.4379 42.8727 14.3724 42.8648 14.3044 42.8629C14.288 42.8789 14.2718 42.8946 14.2553 42.9106C13.988 42.9318 13.7261 42.9318 13.4699 42.9106C13.4453 42.9266 13.4208 42.9423 13.3962 42.9583C13.2325 42.9266 13.0691 42.9266 12.9053 42.9583C12.8808 42.9423 12.8563 42.9266 12.8317 42.9106C12.682 42.9125 12.5347 42.9206 12.3899 42.9345C12.3653 42.9185 12.3408 42.9027 12.3163 42.8867C12.2222 42.8824 12.1241 42.8905 12.0217 42.9106C11.9972 42.8946 11.9726 42.8789 11.9481 42.8629C11.8185 42.8569 11.6874 42.8569 11.5554 42.8629C11.5001 42.8235 11.4429 42.8154 11.3835 42.839C11.351 42.8061 11.3183 42.7982 11.2854 42.8152C11.1858 42.7813 11.0876 42.7574 10.9908 42.7436C10.9579 42.7605 10.9251 42.7526 10.8926 42.7197C10.8332 42.7433 10.776 42.7352 10.7208 42.6959C10.7126 42.7037 10.7045 42.7118 10.6963 42.7197C10.627 42.7044 10.5534 42.6806 10.4754 42.6481C10.4424 42.6651 10.4097 42.6572 10.3772 42.6243C10.369 42.6321 10.3608 42.6403 10.3526 42.6481C10.2299 42.6083 10.1072 42.5687 9.98447 42.5288C9.93643 42.561 9.88734 42.5532 9.8372 42.505C9.79628 42.505 9.75539 42.505 9.71447 42.505C9.55903 42.4494 9.40356 42.3935 9.24811 42.3379C9.20214 42.352 9.16122 42.336 9.12539 42.2902C9.08447 42.2902 9.04358 42.2902 9.00266 42.2902C8.92903 42.2504 8.85539 42.2108 8.78176 42.1709C8.77358 42.1788 8.76538 42.1869 8.75721 42.1948C8.70152 42.1526 8.64425 42.1366 8.58539 42.1471C8.51176 42.1072 8.43812 42.0676 8.36449 42.0278C8.35632 42.0356 8.34812 42.0438 8.33994 42.0516C8.30411 42.0058 8.26319 41.9898 8.21722 42.0039C8.1763 41.9722 8.13541 41.9402 8.09449 41.9085C8.08632 41.9163 8.07812 41.9245 8.06995 41.9323C7.96862 41.8848 7.86227 41.8293 7.75086 41.7653C7.74269 41.7732 7.73449 41.7813 7.72631 41.7892C7.6854 41.7574 7.64451 41.7255 7.60359 41.6937C7.59542 41.7016 7.58722 41.7097 7.57904 41.7176C7.53813 41.6859 7.49724 41.6539 7.45632 41.6221C7.44814 41.63 7.43995 41.6381 7.43177 41.646C7.39086 41.6143 7.34996 41.5823 7.30905 41.5506C7.30087 41.5584 7.29268 41.5666 7.2845 41.5744C7.18632 41.5107 7.08814 41.4473 6.98996 41.3835C6.95152 41.3969 6.9188 41.3809 6.89178 41.3358C6.82772 41.3322 6.77045 41.3003 6.71996 41.2404C6.71179 41.2483 6.70359 41.2564 6.69542 41.2642C6.57269 41.1767 6.44997 41.0894 6.32724 41.0018C6.31907 41.0097 6.31087 41.0178 6.3027 41.0256C6.02291 40.8235 5.73654 40.6169 5.44362 40.4053C5.43544 40.4132 5.42725 40.4213 5.41907 40.4291C5.30661 40.3172 5.18795 40.2137 5.06317 40.119C5.05499 40.0872 5.0468 40.0872 5.03862 40.119C1.67824 37.234 0.185065 33.6073 0.559133 29.2388C0.949376 26.3181 2.18483 23.8445 4.26545 21.8183C11.7026 14.5966 19.1398 7.37498 26.577 0.15332C28.9984 2.59915 30.0784 5.53394 29.8169 8.95769C29.5202 11.4773 28.5055 13.6247 26.7733 15.3999C22.0361 19.997 17.2989 24.5939 12.5617 29.191C12.4314 29.322 12.3128 29.4652 12.2058 29.6205C11.1639 30.6243 10.1248 31.6305 9.08857 32.6388C8.90137 32.7858 8.71318 32.9328 8.52403 33.0802C8.32978 33.1807 8.13752 33.284 7.94722 33.3904C7.93706 33.3794 7.92479 33.3716 7.9104 33.3666C7.81519 33.41 7.72111 33.4498 7.62813 33.4859C7.58447 33.4625 7.54358 33.4703 7.50541 33.5097C7.47109 33.4966 7.43835 33.4887 7.40723 33.4859C7.36265 33.5321 7.31356 33.5481 7.25996 33.5336C7.23541 33.5176 7.21087 33.5018 7.18632 33.4859C7.12086 33.5176 7.05542 33.5176 6.98996 33.4859C6.91299 33.4424 6.83935 33.3947 6.76905 33.3427C5.94635 35.3238 5.12409 37.3042 4.30227 39.2839C4.31044 39.2917 4.31864 39.2998 4.32681 39.3077C4.46211 39.255 4.6012 39.1913 4.74408 39.1168C4.77702 39.1502 4.79749 39.1424 4.80544 39.093C4.81362 39.1008 4.82181 39.109 4.82999 39.1168C4.90156 39.0801 4.9711 39.0402 5.03862 38.9975C5.14036 38.9901 5.23444 38.9505 5.32089 38.8782C5.34487 38.9085 5.36534 38.9085 5.38225 38.8782Z"/></clipPath><linearGradient id="paint0_diamond_284_332" x1="0" y1="0" x2="500" y2="500" gradientUnits="userSpaceOnUse">
<stop offset="0.451923" stop-color="#47DE8F"/>
<stop offset="0.611494" stop-color="#E89405"/>
<stop offset="0.769763" stop-color="#EE534E"/>
<stop offset="0.91515" stop-color="#2268FF"/>
</linearGradient>
</defs>
</svg>
